{
	"asset":{
		"generator":"Khronos glTF Blender I/O v5.0.21",
		"version":"2.0"
	},
	"scene":0,
	"scenes":[
		{
			"name":"Scene",
			"nodes":[
				0,
				1,
				3
			]
		}
	],
	"nodes":[
		{
			"name":"world"
		},
		{
			"name":"world.001"
		},
		{
			"mesh":0,
			"name":"tmpze62vu7c.ply",
			"rotation":[
				0,
				1,
				0,
				0
			],
			"scale":[
				1.6219637393951416,
				1.30874502658844,
				1.912994384765625
			],
			"translation":[
				-0.019928455352783203,
				1.068347454071045,
				-0.019947495311498642
			]
		},
		{
			"children":[
				2
			],
			"name":"world.002"
		}
	],
	"materials":[
		{
			"doubleSided":true,
			"name":"Material.004",
			"pbrMetallicRoughness":{
				"baseColorFactor":[
					0.800000011920929,
					0.800000011920929,
					0.800000011920929,
					1
				],
				"metallicFactor":0,
				"roughnessFactor":0.5
			}
		}
	],
	"meshes":[
		{
			"name":"tmpze62vu7c.ply.001",
			"primitives":[
				{
					"attributes":{
						"POSITION":0,
						"NORMAL":1,
						"TEXCOORD_0":2
					},
					"indices":3,
					"material":0
				}
			]
		}
	],
	"accessors":[
		{
			"bufferView":0,
			"componentType":5126,
			"count":104434,
			"max":[
				0.4893149137496948,
				0.8569881319999695,
				0.08958219736814499
			],
			"min":[
				-0.47537147998809814,
				-0.7624706625938416,
				-0.12947718799114227
			],
			"type":"VEC3"
		},
		{
			"bufferView":1,
			"componentType":5126,
			"count":104434,
			"type":"VEC3"
		},
		{
			"bufferView":2,
			"componentType":5126,
			"count":104434,
			"type":"VEC2"
		},
		{
			"bufferView":3,
			"componentType":5125,
			"count":105099,
			"type":"SCALAR"
		}
	],
	"bufferViews":[
		{
			"buffer":0,
			"byteLength":1253208,
			"byteOffset":0,
			"target":34962
		},
		{
			"buffer":0,
			"byteLength":1253208,
			"byteOffset":1253208,
			"target":34962
		},
		{
			"buffer":0,
			"byteLength":835472,
			"byteOffset":2506416,
			"target":34962
		},
		{
			"buffer":0,
			"byteLength":420396,
			"byteOffset":3341888,
			"target":34963
		}
	],
	"buffers":[
		{
			"byteLength":3762284,
			"uri":"artistic_shelf_canonical.bin"
		}
	]
}
