{
	"asset":{
		"generator":"Khronos glTF Blender I/O v5.0.21",
		"version":"2.0"
	},
	"scene":0,
	"scenes":[
		{
			"name":"Scene",
			"nodes":[
				0,
				2
			]
		}
	],
	"nodes":[
		{
			"name":"world"
		},
		{
			"mesh":0,
			"name":"tmpko3we45f.ply",
			"rotation":[
				0,
				-0.7071068286895752,
				0,
				0.7071067094802856
			],
			"translation":[
				-0.019513368606567383,
				0.6280650496482849,
				0.019893527030944824
			]
		},
		{
			"children":[
				1
			],
			"name":"world.001"
		}
	],
	"materials":[
		{
			"doubleSided":true,
			"name":"Material.003",
			"pbrMetallicRoughness":{
				"baseColorFactor":[
					0.800000011920929,
					0.800000011920929,
					0.800000011920929,
					1
				],
				"metallicFactor":0,
				"roughnessFactor":0.5
			}
		}
	],
	"meshes":[
		{
			"name":"tmpko3we45f.ply.001",
			"primitives":[
				{
					"attributes":{
						"POSITION":0,
						"NORMAL":1,
						"TEXCOORD_0":2
					},
					"indices":3,
					"material":0
				}
			]
		}
	],
	"accessors":[
		{
			"bufferView":0,
			"componentType":5126,
			"count":118363,
			"max":[
				0.9611515998840332,
				0.5910304188728333,
				0.9589385390281677
			],
			"min":[
				-1.0009386539459229,
				-0.6280650496482849,
				-0.9979652762413025
			],
			"type":"VEC3"
		},
		{
			"bufferView":1,
			"componentType":5126,
			"count":118363,
			"type":"VEC3"
		},
		{
			"bufferView":2,
			"componentType":5126,
			"count":118363,
			"type":"VEC2"
		},
		{
			"bufferView":3,
			"componentType":5125,
			"count":120000,
			"type":"SCALAR"
		}
	],
	"bufferViews":[
		{
			"buffer":0,
			"byteLength":1420356,
			"byteOffset":0,
			"target":34962
		},
		{
			"buffer":0,
			"byteLength":1420356,
			"byteOffset":1420356,
			"target":34962
		},
		{
			"buffer":0,
			"byteLength":946904,
			"byteOffset":2840712,
			"target":34962
		},
		{
			"buffer":0,
			"byteLength":480000,
			"byteOffset":3787616,
			"target":34963
		}
	],
	"buffers":[
		{
			"byteLength":4267616,
			"uri":"round_table_canonical.bin"
		}
	]
}
