{
	"asset":{
		"generator":"Khronos glTF Blender I/O v5.0.21",
		"version":"2.0"
	},
	"scene":0,
	"scenes":[
		{
			"name":"Scene",
			"nodes":[
				1
			]
		}
	],
	"nodes":[
		{
			"mesh":0,
			"name":"tmpvyz0z8gt.ply",
			"rotation":[
				0,
				1,
				0,
				0
			],
			"translation":[
				0.047493815422058105,
				0.9980607628822327,
				-0.05862264335155487
			]
		},
		{
			"children":[
				0
			],
			"name":"world"
		}
	],
	"materials":[
		{
			"doubleSided":true,
			"name":"Material.002",
			"pbrMetallicRoughness":{
				"baseColorFactor":[
					0.8000156879425049,
					0.8000156879425049,
					0.8000156879425049,
					1
				],
				"metallicFactor":0,
				"roughnessFactor":0.5
			}
		}
	],
	"meshes":[
		{
			"name":"tmpvyz0z8gt.ply.001",
			"primitives":[
				{
					"attributes":{
						"POSITION":0,
						"NORMAL":1,
						"TEXCOORD_0":2
					},
					"indices":3,
					"material":0
				}
			]
		}
	],
	"accessors":[
		{
			"bufferView":0,
			"componentType":5126,
			"count":118387,
			"max":[
				0.8518096208572388,
				0.9589444994926453,
				0.18232792615890503
			],
			"min":[
				-0.7568219900131226,
				-0.9980607628822327,
				-0.29957321286201477
			],
			"type":"VEC3"
		},
		{
			"bufferView":1,
			"componentType":5126,
			"count":118387,
			"type":"VEC3"
		},
		{
			"bufferView":2,
			"componentType":5126,
			"count":118387,
			"type":"VEC2"
		},
		{
			"bufferView":3,
			"componentType":5125,
			"count":120000,
			"type":"SCALAR"
		}
	],
	"bufferViews":[
		{
			"buffer":0,
			"byteLength":1420644,
			"byteOffset":0,
			"target":34962
		},
		{
			"buffer":0,
			"byteLength":1420644,
			"byteOffset":1420644,
			"target":34962
		},
		{
			"buffer":0,
			"byteLength":947096,
			"byteOffset":2841288,
			"target":34962
		},
		{
			"buffer":0,
			"byteLength":480000,
			"byteOffset":3788384,
			"target":34963
		}
	],
	"buffers":[
		{
			"byteLength":4268384,
			"uri":"shelf_3x3_canonical.bin"
		}
	]
}
