{"scene":0,"scenes":[{"nodes":[0]}],"asset":{"version":"2.0","generator":"https://github.com/mikedh/trimesh"},"accessors":[{"componentType":5125,"type":"SCALAR","bufferView":0,"count":120000,"max":[118715],"min":[0]},{"componentType":5126,"type":"VEC3","byteOffset":0,"bufferView":1,"count":118716,"max":[0.699999988079071,0.7607923746109009,0.36473020911216736],"min":[-0.699999988079071,0.0,-0.36473020911216736]},{"componentType":5126,"type":"VEC2","byteOffset":0,"bufferView":3,"count":118716,"max":[0.9996780157089233,1.0],"min":[0.0,0.00033420324325561523]}],"meshes":[{"name":"tmp7zu77nlc.ply.001","extras":{"units":"meters","from_gltf_primitive":false,"name":"tmp7zu77nlc.ply.001","node":"tmp7zu77nlc.ply"},"primitives":[{"attributes":{"POSITION":1,"TEXCOORD_0":2},"indices":0,"mode":4,"material":0}]}],"images":[{"bufferView":2,"mimeType":"image/png"}],"textures":[{"source":0}],"materials":[{"pbrMetallicRoughness":{"baseColorTexture":{"index":0},"roughnessFactor":0.9036020040512085},"name":"Material_0.001","doubleSided":false}],"nodes":[{"name":"world","children":[1]},{"name":"tmp7zu77nlc.ply.001","mesh":0}],"buffers":[{"uri":"gltf_buffer_0.bin","byteLength":480000},{"uri":"gltf_buffer_1.bin","byteLength":1424592},{"uri":"gltf_buffer_2.bin","byteLength":1771492},{"uri":"gltf_buffer_3.bin","byteLength":949728}],"bufferViews":[{"buffer":0,"byteOffset":0,"byteLength":480000},{"buffer":1,"byteOffset":0,"byteLength":1424592},{"buffer":2,"byteOffset":0,"byteLength":1771492},{"buffer":3,"byteOffset":0,"byteLength":949728}]}