{"scene":0,"scenes":[{"nodes":[0]}],"asset":{"version":"2.0","generator":"https://github.com/mikedh/trimesh"},"accessors":[{"componentType":5125,"type":"SCALAR","bufferView":0,"count":120000,"max":[119774],"min":[0]},{"componentType":5126,"type":"VEC3","byteOffset":0,"bufferView":1,"count":119775,"max":[0.3499999940395355,0.8002223968505859,0.45301908254623413],"min":[-0.3499999940395355,0.0,-0.45301908254623413]},{"componentType":5126,"type":"VEC2","byteOffset":0,"bufferView":3,"count":119775,"max":[0.999524712562561,1.0],"min":[0.0,0.0004761815071105957]}],"meshes":[{"name":"tmpk7e431ig.ply.001","extras":{"units":"meters","from_gltf_primitive":false,"name":"tmpk7e431ig.ply.001","node":"tmpk7e431ig.ply"},"primitives":[{"attributes":{"POSITION":1,"TEXCOORD_0":2},"indices":0,"mode":4,"material":0}]}],"images":[{"bufferView":2,"mimeType":"image/png"}],"textures":[{"source":0}],"materials":[{"pbrMetallicRoughness":{"baseColorTexture":{"index":0},"roughnessFactor":0.9036020040512085},"name":"Material_0.001","doubleSided":false}],"nodes":[{"name":"world","children":[1]},{"name":"tmpk7e431ig.ply.001","mesh":0}],"buffers":[{"uri":"gltf_buffer_0.bin","byteLength":480000},{"uri":"gltf_buffer_1.bin","byteLength":1437300},{"uri":"gltf_buffer_2.bin","byteLength":2061264},{"uri":"gltf_buffer_3.bin","byteLength":958200}],"bufferViews":[{"buffer":0,"byteOffset":0,"byteLength":480000},{"buffer":1,"byteOffset":0,"byteLength":1437300},{"buffer":2,"byteOffset":0,"byteLength":2061264},{"buffer":3,"byteOffset":0,"byteLength":958200}]}