{"scene":0,"scenes":[{"nodes":[0]}],"asset":{"version":"2.0","generator":"https://github.com/mikedh/trimesh"},"accessors":[{"componentType":5125,"type":"SCALAR","bufferView":0,"count":120000,"max":[119963],"min":[0]},{"componentType":5126,"type":"VEC3","byteOffset":0,"bufferView":1,"count":119964,"max":[0.3499999940395355,0.9878982901573181,0.3365757465362549],"min":[-0.3499999940395355,0.0,-0.3365757465362549]},{"componentType":5126,"type":"VEC2","byteOffset":0,"bufferView":3,"count":119964,"max":[0.999567449092865,1.0],"min":[0.0,0.0004277229309082031]}],"meshes":[{"name":"tmpfh1g5drh.ply.001","extras":{"units":"meters","from_gltf_primitive":false,"name":"tmpfh1g5drh.ply.001","node":"tmpfh1g5drh.ply"},"primitives":[{"attributes":{"POSITION":1,"TEXCOORD_0":2},"indices":0,"mode":4,"material":0}]}],"images":[{"bufferView":2,"mimeType":"image/png"}],"textures":[{"source":0}],"materials":[{"pbrMetallicRoughness":{"baseColorTexture":{"index":0},"roughnessFactor":0.9036020040512085},"name":"Material_0.001","doubleSided":false}],"nodes":[{"name":"world","children":[1]},{"name":"tmpfh1g5drh.ply.001","mesh":0}],"buffers":[{"uri":"gltf_buffer_0.bin","byteLength":480000},{"uri":"gltf_buffer_1.bin","byteLength":1439568},{"uri":"gltf_buffer_2.bin","byteLength":2716652},{"uri":"gltf_buffer_3.bin","byteLength":959712}],"bufferViews":[{"buffer":0,"byteOffset":0,"byteLength":480000},{"buffer":1,"byteOffset":0,"byteLength":1439568},{"buffer":2,"byteOffset":0,"byteLength":2716652},{"buffer":3,"byteOffset":0,"byteLength":959712}]}