{"scene":0,"scenes":[{"nodes":[0]}],"asset":{"version":"2.0","generator":"https://github.com/mikedh/trimesh"},"accessors":[{"componentType":5125,"type":"SCALAR","bufferView":0,"count":120000,"max":[119118],"min":[0]},{"componentType":5126,"type":"VEC3","byteOffset":0,"bufferView":1,"count":119119,"max":[1.0,1.2834309339523315,1.2320592403411865],"min":[-1.0,0.0,-1.2320592403411865]},{"componentType":5126,"type":"VEC2","byteOffset":0,"bufferView":3,"count":119119,"max":[0.9995238184928894,1.0],"min":[0.0,0.0004385709762573242]}],"meshes":[{"name":"tmp83qj0uui.ply.001","extras":{"units":"meters","from_gltf_primitive":false,"name":"tmp83qj0uui.ply.001","node":"tmp83qj0uui.ply"},"primitives":[{"attributes":{"POSITION":1,"TEXCOORD_0":2},"indices":0,"mode":4,"material":0}]}],"images":[{"bufferView":2,"mimeType":"image/png"}],"textures":[{"source":0}],"materials":[{"pbrMetallicRoughness":{"baseColorTexture":{"index":0},"roughnessFactor":0.9036020040512085},"name":"Material_0.001","doubleSided":false}],"nodes":[{"name":"world","children":[1]},{"name":"tmp83qj0uui.ply.001","mesh":0}],"buffers":[{"uri":"gltf_buffer_0.bin","byteLength":480000},{"uri":"gltf_buffer_1.bin","byteLength":1429428},{"uri":"gltf_buffer_2.bin","byteLength":2012204},{"uri":"gltf_buffer_3.bin","byteLength":952952}],"bufferViews":[{"buffer":0,"byteOffset":0,"byteLength":480000},{"buffer":1,"byteOffset":0,"byteLength":1429428},{"buffer":2,"byteOffset":0,"byteLength":2012204},{"buffer":3,"byteOffset":0,"byteLength":952952}]}